<svg aria-hidden="true" style="position: absolute; width: 0; height: 0; overflow: hidden;" version="1.1" xmlns="http://www.w3.org/2000/svg" xmlns:xlink="http://www.w3.org/1999/xlink">
<defs>
<symbol id="icon-wallet" viewBox="0 0 38 32">
<title>wallet</title>
<path d="M32.509 7.5c0.276 0 0.5-0.224 0.5-0.5v-1.665c0-0.903-0.735-1.638-1.638-1.638h-2.687l-0.613-1.809c-0.086-0.255-0.36-0.397-0.619-0.318l-14.553 4.424c-0.264 0.081-0.413 0.36-0.333 0.624 0.066 0.216 0.264 0.354 0.479 0.354 0.048 0 0.097-0.007 0.146-0.021l14.089-4.284 1.343 3.965c0.089 0.262 0.375 0.404 0.634 0.313 0.262-0.088 0.402-0.373 0.313-0.634l-0.547-1.615h2.349c0.352 0 0.638 0.286 0.638 0.638v1.666c-0.001 0.276 0.223 0.5 0.499 0.5zM36.5 15c-0.276 0-0.5 0.224-0.5 0.5s0.224 0.5 0.5 0.5c0.351 0 0.5 0.149 0.5 0.5v6c0 0.351-0.149 0.5-0.5 0.5h-8c-0.351 0-0.5-0.149-0.5-0.5v-5c0-0.351 0.149-0.5 0.5-0.5h6c0.276 0 0.5-0.224 0.5-0.5v-6c0-0.911-0.589-1.5-1.5-1.5h-30.5c-1.233 0-2-0.767-2-2s0.767-2 2-2h5.076l-3.026 0.998c-0.262 0.086-0.405 0.369-0.319 0.631 0.069 0.21 0.265 0.343 0.475 0.343 0.052 0 0.104-0.008 0.157-0.025l18.119-5.973c0.262-0.087 0.405-0.369 0.318-0.632-0.086-0.262-0.369-0.405-0.632-0.318l-12.1 3.99c-0.023-0.004-0.044-0.014-0.068-0.014h-8c-1.794 0-3 1.206-3 3v22c0 1.794 1.206 3 3 3h30.5c0.911 0 1.5-0.589 1.5-1.5v-5c0-0.276-0.224-0.5-0.5-0.5s-0.5 0.224-0.5 0.5v5c0 0.351-0.149 0.5-0.5 0.5h-30.5c-1.233 0-2-0.767-2-2v-19.688c0.513 0.433 1.192 0.688 2 0.688h30.5c0.351 0 0.5 0.149 0.5 0.5v5.5h-5.5c-0.911 0-1.5 0.589-1.5 1.5v5c0 0.911 0.589 1.5 1.5 1.5h8c0.911 0 1.5-0.589 1.5-1.5v-6c0-0.911-0.589-1.5-1.5-1.5zM31 20c0 0.552 0.448 1 1 1s1-0.448 1-1c0-0.552-0.448-1-1-1s-1 0.448-1 1z"></path>
</symbol>
<symbol id="icon-hourglass" viewBox="0 0 21 32">
<title>hourglass</title>
<path d="M21.021 0.5c0-0.276-0.224-0.5-0.5-0.5h-20.042c-0.276 0-0.5 0.224-0.5 0.5s0.223 0.5 0.5 0.5h20.043c0.276 0 0.499-0.224 0.499-0.5zM20 6.112v-3.612c0-0.276-0.224-0.5-0.5-0.5h-17.918c-0.276 0-0.5 0.224-0.5 0.5v3.612c0 4.976 3.808 8.35 6.014 9.886-2.529 1.742-6.096 5.057-6.096 9.89v3.612c0 0.276 0.224 0.5 0.5 0.5h18c0.276 0 0.5-0.224 0.5-0.5v-3.583c0-4.962-3.863-8.365-6.095-9.916 2.529-1.742 6.095-5.056 6.095-9.889zM10.5 24.19l4.81 4.81h-9.62l4.81-4.81zM12.732 15.578c-0.145 0.091-0.232 0.251-0.232 0.422s0.087 0.331 0.232 0.422c1.885 1.195 6.268 4.513 6.268 9.495v3.083h-2.288c-0.009-0.011-0.013-0.025-0.023-0.035l-5.689-5.689v-0.776c0-0.276-0.224-0.5-0.5-0.5s-0.5 0.224-0.5 0.5v0.776l-5.689 5.689c-0.010 0.010-0.014 0.024-0.023 0.035h-2.288v-3.112c0-4.777 3.927-7.981 6.268-9.465 0.145-0.092 0.232-0.252 0.232-0.423s-0.087-0.331-0.232-0.422c-1.86-1.18-6.268-4.463-6.268-9.466v-3.112h17v3.112c0 4.778-3.927 7.981-6.268 9.466zM15.541 8.972h-9.814c-0.179 0-0.345 0.096-0.434 0.251-0.089 0.156-0.088 0.347 0.002 0.502 1.187 2.021 2.92 3.258 4.755 4.569l0.159 0.113c0.087 0.062 0.188 0.093 0.291 0.093s0.204-0.031 0.291-0.093c0.262-0.187 0.526-0.371 0.79-0.555 1.639-1.144 3.334-2.326 4.391-4.127 0.091-0.154 0.092-0.346 0.003-0.501-0.090-0.156-0.255-0.252-0.434-0.252zM11.008 13.031c-0.169 0.118-0.338 0.236-0.507 0.355-1.505-1.075-2.835-2.042-3.846-3.415h7.943c-0.941 1.212-2.234 2.114-3.59 3.060zM0.479 32h20.043c0.276 0 0.5-0.224 0.5-0.5s-0.224-0.5-0.5-0.5h-20.043c-0.276 0-0.5 0.224-0.5 0.5s0.223 0.5 0.5 0.5zM10.5 19c-0.276 0-0.5 0.224-0.5 0.5v1c0 0.276 0.224 0.5 0.5 0.5s0.5-0.224 0.5-0.5v-1c0-0.276-0.224-0.5-0.5-0.5zM10.5 16c-0.276 0-0.5 0.224-0.5 0.5v1c0 0.276 0.224 0.5 0.5 0.5s0.5-0.224 0.5-0.5v-1c0-0.276-0.224-0.5-0.5-0.5z"></path>
</symbol>
<symbol id="icon-trophy" viewBox="0 0 34 32">
<title>trophy</title>
<path d="M25.5 1c0.276 0 0.5-0.224 0.5-0.5s-0.224-0.5-0.5-0.5h-17c-0.276 0-0.5 0.224-0.5 0.5s0.224 0.5 0.5 0.5h17zM25.5 2h-19c-3.283 0-4.813 1.166-5.519 2.144-0.864 1.2-1.026 2.803-0.456 4.514 0.882 2.646 3.846 5.825 5.668 7.237 0.092 0.071 0.2 0.105 0.307 0.105 0.149 0 0.297-0.066 0.396-0.194 0.169-0.218 0.129-0.532-0.089-0.702-1.674-1.296-4.525-4.342-5.332-6.763-0.467-1.397-0.354-2.68 0.318-3.612 0.815-1.131 2.442-1.729 4.707-1.729h1.5v9.5c0 6.726 6.673 10.601 8.036 11.322-0.021 0.056-0.036 0.115-0.036 0.178v2.5c0 0.276 0.224 0.5 0.5 0.5s0.5-0.224 0.5-0.5v-2.5c0-0.058-0.015-0.112-0.033-0.164 1.514-0.712 9.033-4.586 9.033-11.336v-9.5h1.5c2.265 0 3.892 0.598 4.707 1.729 0.672 0.932 0.785 2.215 0.318 3.613-0.63 1.891-3.769 5.553-5.332 6.763-0.218 0.169-0.258 0.483-0.089 0.702 0.099 0.127 0.247 0.193 0.396 0.193 0.107 0 0.215-0.034 0.307-0.104 1.732-1.342 4.961-5.119 5.668-7.237 0.57-1.711 0.408-3.314-0.456-4.514-0.706-0.979-2.236-2.145-5.519-2.145h-2zM25 12.5c0 6.093-7.152 9.804-8.486 10.443-1.228-0.665-7.514-4.367-7.514-10.443v-9.5h16v9.5zM11 28c-1.141 0-2 0.86-2 2v1.5c0 0.276 0.224 0.5 0.5 0.5h14c0.276 0 0.5-0.224 0.5-0.5v-1.425c0-1.163-0.879-2.075-2-2.075h-11zM23 30.075v0.925h-13v-1c0-0.589 0.411-1 1-1h11c0.57 0 1 0.462 1 1.075z"></path>
</symbol>
<symbol id="icon-linegraph" viewBox="0 0 42 32">
<title>linegraph</title>
<path d="M39 0c-1.654 0-3 1.346-3 3 0 0.888 0.396 1.679 1.011 2.229l-8.8 14.031c-0.371-0.165-0.78-0.26-1.211-0.26-0.868 0-1.644 0.376-2.193 0.967l-9.073-5.745c0.168-0.374 0.266-0.786 0.266-1.222 0-1.654-1.346-3-3-3s-3 1.346-3 3c0 0.904 0.41 1.706 1.044 2.256l-6.895 10.975c-0.354-0.148-0.742-0.231-1.149-0.231-1.654 0-3 1.346-3 3s1.346 3 3 3 3-1.346 3-3c0-0.888-0.395-1.678-1.010-2.228l6.904-10.99c0.343 0.138 0.715 0.218 1.106 0.218 0.859 0 1.629-0.367 2.176-0.947l9.078 5.748c-0.161 0.368-0.254 0.772-0.254 1.199 0 1.654 1.346 3 3 3s3-1.346 3-3c0-0.863-0.371-1.636-0.957-2.184l8.81-14.046c0.354 0.147 0.741 0.23 1.147 0.23 1.654 0 3-1.346 3-3s-1.346-3-3-3zM5 29c0 1.103-0.897 2-2 2s-2-0.897-2-2 0.897-2 2-2 2 0.897 2 2zM13 15c-1.103 0-2-0.897-2-2s0.897-2 2-2 2 0.897 2 2-0.897 2-2 2zM27 24c-1.103 0-2-0.897-2-2s0.897-2 2-2 2 0.897 2 2-0.897 2-2 2zM39 5c-1.103 0-2-0.897-2-2s0.897-2 2-2 2 0.897 2 2-0.897 2-2 2z"></path>
</symbol>
<symbol id="icon-genius" viewBox="0 0 30 32">
<title>genius</title>
<path d="M0.567 24c0.785 1.36 2.548 2.079 5.097 2.079 0 0 0 0 0.001 0 1.146 0 2.407-0.161 3.722-0.438 1.266 3.879 3.287 6.359 5.613 6.359s4.347-2.48 5.613-6.359c1.316 0.276 2.577 0.438 3.723 0.438 0 0 0 0 0 0 2.548 0 4.311-0.719 5.096-2.079 1.016-1.761 0.117-4.72-2.966-8 3.083-3.28 3.982-6.239 2.966-8-0.785-1.36-2.548-2.079-5.097-2.079-1.146 0-2.408 0.161-3.723 0.438-1.265-3.879-3.286-6.359-5.612-6.359s-4.347 2.48-5.613 6.359c-1.316-0.277-2.578-0.438-3.723-0.438-2.549 0-4.312 0.719-5.097 2.079-1.016 1.761-0.117 4.72 2.966 8-3.083 3.28-3.983 6.239-2.966 8zM15 31c-1.839 0-3.516-2.199-4.627-5.579 1.503-0.381 3.066-0.92 4.627-1.599 1.561 0.679 3.124 1.218 4.627 1.599-1.111 3.38-2.788 5.579-4.627 5.579zM9 16c0-1.164 0.062-2.297 0.168-3.393 0.893-0.622 1.837-1.228 2.832-1.803 0.984-0.568 1.991-1.077 3-1.533 1.009 0.455 2.016 0.964 3 1.533 0.995 0.574 1.938 1.18 2.832 1.803 0.106 1.096 0.168 2.229 0.168 3.393s-0.062 2.297-0.168 3.393c-0.893 0.622-1.837 1.228-2.832 1.803-0.984 0.568-1.991 1.077-3 1.533-1.009-0.455-2.016-0.964-3-1.533-0.995-0.574-1.938-1.18-2.832-1.803-0.106-1.096-0.168-2.229-0.168-3.393zM8.098 18.623c-1.146-0.861-2.184-1.745-3.086-2.623 0.902-0.878 1.94-1.762 3.086-2.623-0.059 0.854-0.098 1.725-0.098 2.623s0.039 1.769 0.098 2.623zM9.321 11.286c0.184-1.341 0.442-2.604 0.764-3.754 1.195 0.301 2.435 0.717 3.682 1.219-0.762 0.369-1.522 0.757-2.267 1.187-0.773 0.447-1.488 0.897-2.179 1.348zM16.232 8.751c1.247-0.502 2.487-0.918 3.682-1.219 0.322 1.15 0.58 2.413 0.764 3.754-0.69-0.451-1.406-0.901-2.179-1.348-0.744-0.43-1.504-0.818-2.267-1.187zM21.902 13.377c1.147 0.861 2.184 1.744 3.086 2.623-0.902 0.878-1.94 1.762-3.086 2.623 0.059-0.854 0.098-1.725 0.098-2.623s-0.039-1.769-0.098-2.623zM20.679 20.714c-0.184 1.341-0.442 2.604-0.764 3.754-1.195-0.301-2.435-0.717-3.682-1.219 0.763-0.368 1.523-0.757 2.268-1.187 0.772-0.447 1.487-0.897 2.178-1.348zM11.5 22.062c0.745 0.43 1.505 0.819 2.268 1.187-1.247 0.502-2.487 0.918-3.682 1.219-0.322-1.15-0.58-2.413-0.764-3.754 0.69 0.451 1.405 0.901 2.178 1.348zM28.567 23.5c-0.588 1.019-2.090 1.579-4.23 1.579-1.056 0-2.218-0.146-3.432-0.395 0.396-1.424 0.693-3.008 0.877-4.708 1.546-1.084 2.851-2.168 3.94-3.229 2.532 2.682 3.726 5.226 2.845 6.753zM24.336 6.921c2.14 0 3.643 0.561 4.23 1.579 0.882 1.527-0.313 4.071-2.845 6.753-1.089-1.060-2.394-2.145-3.94-3.229-0.184-1.7-0.481-3.284-0.877-4.708 1.214-0.249 2.377-0.395 3.432-0.395zM15 1c1.839 0 3.516 2.199 4.627 5.579-1.503 0.381-3.066 0.92-4.627 1.599-1.561-0.679-3.124-1.218-4.627-1.599 1.111-3.38 2.788-5.579 4.627-5.579zM1.433 8.5c0.588-1.019 2.090-1.579 4.23-1.579 1.056 0 2.218 0.146 3.432 0.395-0.396 1.424-0.693 3.008-0.877 4.708-1.546 1.084-2.851 2.168-3.94 3.229-2.532-2.682-3.726-5.226-2.845-6.753zM4.278 16.747c1.089 1.060 2.394 2.145 3.94 3.229 0.184 1.7 0.481 3.284 0.877 4.708-1.213 0.249-2.375 0.395-3.431 0.395 0 0-0.001 0-0.001 0-2.14 0-3.643-0.561-4.23-1.579-0.881-1.527 0.313-4.071 2.845-6.753zM15 18.5c1.378 0 2.5-1.121 2.5-2.5s-1.122-2.5-2.5-2.5-2.5 1.121-2.5 2.5 1.122 2.5 2.5 2.5zM15 14.5c0.827 0 1.5 0.673 1.5 1.5s-0.673 1.5-1.5 1.5-1.5-0.673-1.5-1.5 0.673-1.5 1.5-1.5z"></path>
</symbol>
<symbol id="icon-target" viewBox="0 0 42 32">
<title>target</title>
<path d="M41.779 13.090c-0.225-0.189-0.562-0.159-0.752 0.068l-2.367 2.84c-0.051-0.016-0.103-0.032-0.16 0.002h-1.391l1.77-2.158c0.189-0.227 0.158-0.563-0.068-0.752s-0.563-0.159-0.752 0.068l-2.34 2.842h-1.579l1.77-2.158c0.189-0.227 0.158-0.563-0.068-0.752s-0.562-0.159-0.752 0.068l-2.34 2.842h-0.752c-0.019-8.841-7.187-16-15.998-16-8.822 0-16 7.178-16 16s7.178 16 16 16c8.473 0 15.41-6.626 15.948-15h0.803l2.34 2.842c0.105 0.127 0.258 0.192 0.41 0.192 0.121 0 0.242-0.040 0.342-0.124 0.227-0.188 0.258-0.525 0.068-0.752l-1.771-2.158h1.579l2.34 2.842c0.105 0.127 0.258 0.192 0.41 0.192 0.121 0 0.242-0.040 0.342-0.124 0.227-0.188 0.258-0.525 0.068-0.752l-1.77-2.158h1.391c0.057 0.034 0.109 0.018 0.161 0.002l2.367 2.84c0.105 0.127 0.258 0.192 0.41 0.192 0.121 0 0.242-0.040 0.342-0.124 0.227-0.188 0.258-0.525 0.068-0.752l-2.215-2.658 2.215-2.658c0.189-0.227 0.158-0.564-0.069-0.752zM16 31c-8.271 0-15-6.729-15-15s6.729-15 15-15c8.26 0 14.979 6.71 14.998 15h-3c-0.018-6.635-5.392-12-11.998-12-6.617 0-12 5.383-12 12s5.383 12 12 12c6.268 0 11.421-4.832 11.948-11h3c-0.535 7.823-7.026 14-14.948 14zM23.998 16c-0.018-4.429-3.598-8-7.998-8-4.411 0-8 3.589-8 8s3.589 8 8 8c4.060 0 7.416-3.043 7.925-7h3.022c-0.523 5.616-5.231 10-10.947 10-6.065 0-11-4.935-11-11s4.935-11 11-11c6.054 0 10.98 4.916 10.998 11h-3zM19.997 16c-0.019-2.224-1.802-4-3.997-4-2.206 0-4 1.794-4 4s1.794 4 4 4c1.846 0 3.388-1.263 3.847-3h3.068c-0.503 3.404-3.408 6-6.915 6-3.859 0-7-3.141-7-7s3.141-7 7-7c3.848 0 6.98 3.122 6.998 7h-3.001zM16.5 17h2.305c-0.423 1.178-1.516 2-2.805 2-1.654 0-3-1.346-3-3s1.346-3 3-3c1.643 0 2.978 1.328 2.997 3h-2.497c-0.295-0.034-0.534 0.205-0.534 0.5s0.239 0.534 0.534 0.5z"></path>
</symbol>
<symbol id="icon-magnifier" viewBox="0 0 32 32">
<title>magnifier</title>
<path d="M29.156 29.961l-0.709 0.709c-0.785 0.784-2.055 0.784-2.838 0l-5.676-5.674c-0.656-0.658-0.729-1.644-0.281-2.412l-3.104-3.102c-1.669 1.238-3.728 1.979-5.965 1.979-5.54 0-10.031-4.491-10.031-10.031s4.491-10.032 10.031-10.032c5.541 0 10.031 4.491 10.031 10.032 0 2.579-0.98 4.923-2.58 6.7l3.035 3.035c0.768-0.447 1.754-0.375 2.41 0.283l5.676 5.674c0.784 0.785 0.784 2.056 0.001 2.839zM18.088 11.389c0-4.155-3.369-7.523-7.524-7.523s-7.524 3.367-7.524 7.523 3.368 7.523 7.523 7.523 7.525-3.368 7.525-7.523z"></path>
</symbol>
<symbol id="icon-medal" viewBox="0 0 32 32">
<title>medal1</title>
<path d="M15.999 13.531c-4.543 0-8.227 3.684-8.227 8.227s3.684 8.227 8.227 8.227c4.544 0 8.227-3.684 8.227-8.227s-3.683-8.227-8.227-8.227zM15.999 28.783c-3.844 0-6.961-3.117-6.961-6.963 0-3.844 3.117-6.96 6.961-6.96 3.846 0 6.961 3.116 6.961 6.96 0 3.846-3.115 6.963-6.961 6.963zM20.136 6.95l2.824-4.935h-13.922l2.867 4.935h8.231zM21.613 15.351l5.042-8.298-3.381-4.894-6.35 11.165c2.786 0.233 4.689 2.027 4.689 2.027zM15.053 13.262l-6.328-11.103-3.38 4.894 4.894 8.444c-0.001 0 1.776-1.832 4.814-2.235zM14.868 19.924c-0.383 0.299-0.736 0.5-1.062 0.607v1.131c0.619-0.203 1.157-0.518 1.613-0.945v4.711h1.25v-6.549h-1.014c-0.142 0.396-0.404 0.746-0.787 1.045z"></path>
</symbol>
</defs>
</svg>
