<svg aria-hidden="true" style="position: absolute; width: 0; height: 0; overflow: hidden;" version="1.1" xmlns="http://www.w3.org/2000/svg" xmlns:xlink="http://www.w3.org/1999/xlink">
<defs>
<symbol id="icon-alarmclock" viewBox="0 0 30 32">
<title>alarmclock</title>
<path d="M15 2c-7.72 0-14 6.28-14 14s6.28 14 14 14 14-6.28 14-14-6.28-14-14-14zM15 29c-7.168 0-13-5.832-13-13s5.832-13 13-13 13 5.832 13 13-5.832 13-13 13zM7.5 0c-4.136 0-7.5 3.364-7.5 7.5v1.062c0 0.276 0.224 0.5 0.5 0.5s0.5-0.223 0.5-0.5v-1.062c0-3.584 2.916-6.5 6.5-6.5h0.875c0.276 0 0.5-0.224 0.5-0.5s-0.224-0.5-0.5-0.5h-0.875zM22.375 0h-0.875c-0.276 0-0.5 0.224-0.5 0.5s0.224 0.5 0.5 0.5h0.875c3.584 0 6.5 2.916 6.5 6.5v1.062c0 0.276 0.224 0.5 0.5 0.5s0.5-0.224 0.5-0.5v-1.062c0-4.136-3.364-7.5-7.5-7.5zM15 16.293v-6.974c0-0.276-0.224-0.5-0.5-0.5s-0.5 0.224-0.5 0.5v7.181c0 0.133 0.053 0.26 0.146 0.354l4.914 4.914c0.098 0.098 0.226 0.146 0.354 0.146s0.256-0.049 0.354-0.146c0.195-0.195 0.195-0.512 0-0.707l-4.768-4.768zM1.9 31.8l3-4c0.165-0.221 0.12-0.534-0.101-0.7-0.22-0.164-0.533-0.12-0.7 0.101l-3 4c-0.165 0.221-0.12 0.534 0.101 0.7 0.090 0.067 0.196 0.099 0.3 0.099 0.151 0 0.302-0.069 0.4-0.2zM25.9 27.2c-0.167-0.222-0.479-0.265-0.7-0.101-0.221 0.166-0.266 0.479-0.101 0.7l3 4c0.099 0.131 0.249 0.2 0.4 0.2 0.104 0 0.21-0.032 0.3-0.1 0.221-0.166 0.266-0.479 0.101-0.7l-3-3.999z"></path>
</symbol>
<symbol id="icon-folder-download" viewBox="0 0 32 32">
<title>folder-download</title>
<path d="M18 8l-4-4h-14v26h32v-22h-14zM16 27l-7-7h5v-8h4v8h5l-7 7z"></path>
</symbol>
<symbol id="icon-spinner7" viewBox="0 0 32 32">
<title>spinner7</title>
<path d="M13 29c0-1.657 1.343-3 3-3s3 1.343 3 3c0 1.657-1.343 3-3 3s-3-1.343-3-3zM0 16c0-1.657 1.343-3 3-3s3 1.343 3 3c0 1.657-1.343 3-3 3s-3-1.343-3-3zM26 16c0-1.657 1.343-3 3-3s3 1.343 3 3c0 1.657-1.343 3-3 3s-3-1.343-3-3zM3.808 6.808c0-1.657 1.343-3 3-3s3 1.343 3 3c0 1.657-1.343 3-3 3s-3-1.343-3-3zM22.192 25.192c0-1.657 1.343-3 3-3s3 1.343 3 3c0 1.657-1.343 3-3 3s-3-1.343-3-3zM3.808 25.192c0-1.657 1.343-3 3-3s3 1.343 3 3c0 1.657-1.343 3-3 3s-3-1.343-3-3zM22.192 6.808c0-1.657 1.343-3 3-3s3 1.343 3 3c0 1.657-1.343 3-3 3s-3-1.343-3-3z"></path>
</symbol>
<symbol id="icon-play2" viewBox="0 0 32 32">
<title>play2</title>
<path d="M16 0c-8.837 0-16 7.163-16 16s7.163 16 16 16 16-7.163 16-16-7.163-16-16-16zM16 29c-7.18 0-13-5.82-13-13s5.82-13 13-13 13 5.82 13 13-5.82 13-13 13zM12 9l12 7-12 7z"></path>
</symbol>
</defs>
</svg>
